Coordinates
version=1
nRows=35
nColumns=18
inDegrees=yes

Units are S.I. units (second, meters, Newtons, ...)
If the header above contains a line with 'inDegrees', this indicates whether rotational values are in degrees (yes) or radians (no).

endheader
time	TH_y	TH_x	TH_z	TH_x_trans	TH_y_trans	TH_z_trans	SC_y	SC_z	SC_x	AC_y	AC_z	AC_x	GH_y	GH_z	GH_yy	EL_x	PS_y
      0.00000000	   -149.05915049	     -3.11943191	     -2.13901048	      0.04950044	      1.50553987	     -0.00636855	    -16.90939369	      4.38719275	      0.90941871	     69.45096558	     -0.45727334	     -2.86809034	     -2.60951808	      4.34772502	     -0.79078754	     20.14964943	     97.01074988
      0.01000000	   -149.04044235	     -3.13228798	     -2.14508023	      0.04964436	      1.50551475	     -0.00640206	    -16.89895632	      4.38768713	      0.91034699	     69.44895029	     -0.45576850	     -2.87036947	     -2.60941229	      4.34807067	     -0.79047265	     20.14344646	     97.01117396
      0.02000000	   -149.00546955	     -3.14757924	     -2.15760308	      0.04979596	      1.50547611	     -0.00643239	    -16.90691006	      4.39697243	      0.91132159	     69.43515243	     -0.45551321	     -2.86133231	     -2.62345932	      4.34739977	     -0.80463722	     20.13185222	     97.00826685
      0.03000000	   -148.98636940	     -3.16048578	     -2.16424920	      0.04994823	      1.50545218	     -0.00646211	    -16.89646115	      4.39790903	      0.91232145	     69.43353339	     -0.45341380	     -2.86563382	     -2.62308105	      4.34849167	     -0.80392625	     20.12571644	     97.00908991
      0.04000000	   -148.95053202	     -3.17527732	     -2.17771621	      0.05010317	      1.50541650	     -0.00648581	    -16.90642782	      4.40708659	      0.91333098	     69.42304703	     -0.45254569	     -2.85920696	     -2.63537243	      4.34949892	     -0.81613456	     20.11343948	     97.00838943
      0.05000000	   -148.93125674	     -3.18766548	     -2.18343832	      0.05025807	      1.50538963	     -0.00651211	    -16.89575407	      4.40865592	      0.91402642	     69.42258905	     -0.45058400	     -2.86388371	     -2.63411013	      4.35067597	     -0.81449507	     20.10737050	     97.00986501
      0.06000000	   -148.89579058	     -3.20071752	     -2.19614110	      0.05041569	      1.50535649	     -0.00653370	    -16.90618892	      4.41800486	      0.91476963	     69.41758349	     -0.44961110	     -2.85902980	     -2.64291584	      4.35316530	     -0.82302319	     20.09305351	     97.01295605
      0.07000000	   -148.87673209	     -3.21224868	     -2.20053624	      0.05056979	      1.50532800	     -0.00655506	    -16.89586126	      4.42022136	      0.91506991	     69.41842516	     -0.44809916	     -2.86310583	     -2.64084405	      4.35420206	     -0.82057309	     20.08733332	     97.01521827
      0.08000000	   -148.84117801	     -3.22274142	     -2.21124563	      0.05072653	      1.50529545	     -0.00657723	    -16.90713528	      4.43029245	      0.91509489	     69.41958930	     -0.44777168	     -2.85821191	     -2.64607239	      4.35772515	     -0.82534640	     20.07065899	     97.02328194
      0.09000000	   -148.82253948	     -3.23356194	     -2.21383266	      0.05087814	      1.50526532	     -0.00659606	    -16.89652799	      4.43304074	      0.91516577	     69.42153317	     -0.44667894	     -2.86116101	     -2.64321820	      4.35853010	     -0.82214570	     20.06571988	     97.02632349
      0.10000000	   -148.78367885	     -3.24580756	     -2.22342718	      0.05103766	      1.50522812	     -0.00660664	    -16.91964120	      4.44360612	      0.91507026	     69.44192038	     -0.44646686	     -2.85597197	     -2.64503099	      4.37116378	     -0.82210059	     20.05272352	     97.06498320
      0.11000000	   -148.76527539	     -3.25406950	     -2.22323542	      0.05118407	      1.50520111	     -0.00662965	    -16.90698300	      4.44646435	      0.91419471	     69.44266316	     -0.44670942	     -2.85723792	     -2.64283154	      4.37025677	     -0.81960065	     20.04647316	     97.06808917
      0.12000000	   -148.74481665	     -3.26147841	     -2.22215256	      0.05132730	      1.50517422	     -0.00665205	    -16.89659112	      4.45040051	      0.91304488	     69.44392011	     -0.44760123	     -2.85619947	     -2.64089741	      4.36905680	     -0.81744795	     20.03922837	     97.07159626
      0.13000000	   -148.70819823	     -3.26406139	     -2.22049897	      0.05146974	      1.50514661	     -0.00667757	    -16.90632425	      4.45805931	      0.90983627	     69.44655299	     -0.45265712	     -2.84357465	     -2.64702132	      4.36834235	     -0.82314281	     20.01471072	     97.08659420
      0.14000000	   -148.68933240	     -3.27357376	     -2.21875205	      0.05160644	      1.50512000	     -0.00669348	    -16.89620263	      4.46191716	      0.90971097	     69.44965071	     -0.45255892	     -2.84236440	     -2.64372428	      4.36843720	     -0.81965990	     20.01267149	     97.09083437
      0.15000000	   -148.64190793	     -3.28334105	     -2.21710832	      0.05176366	      1.50508469	     -0.00670699	    -16.92868966	      4.46697836	      0.90683807	     69.47777288	     -0.45644882	     -2.83481511	     -2.65271042	      4.38517481	     -0.82515272	     20.00871532	     97.16318530
      0.16000000	   -148.61887978	     -3.29047042	     -2.21186725	      0.05188993	      1.50506274	     -0.00673245	    -16.89554822	      4.46789130	      0.88781412	     69.47913036	     -0.47817142	     -2.82404444	     -2.72634318	      4.40308491	     -0.88583474	     20.02522711	     97.36096081
      0.17000000	   -148.60068239	     -3.29823670	     -2.20573279	      0.05201427	      1.50504446	     -0.00674301	    -16.88554184	      4.46982021	      0.88785806	     69.48378763	     -0.47891850	     -2.81952890	     -2.72199473	      4.40256283	     -0.88149740	     20.02000162	     97.36346191
      0.18000000	   -148.56971475	     -3.30959478	     -2.18983546	      0.05215111	      1.50501930	     -0.00675258	    -16.89788090	      4.46315320	      0.88944953	     69.49218473	     -0.48146169	     -2.80515422	     -2.72450864	      4.40562507	     -0.88392904	     20.00064204	     97.36825338
      0.19000000	   -148.53667124	     -3.32194967	     -2.18025176	      0.05228965	      1.50499662	     -0.00676136	    -16.90716306	      4.46063792	      0.89025458	     69.49847322	     -0.48236137	     -2.79904024	     -2.72799034	      4.40993499	     -0.88678385	     20.00020361	     97.37124654
      0.20000000	   -148.51817349	     -3.33161396	     -2.17557285	      0.05241061	      1.50498701	     -0.00676389	    -16.89810115	      4.46180296	      0.89154640	     69.49992322	     -0.48162491	     -2.79590288	     -2.72628057	      4.41045809	     -0.88504529	     19.99977033	     97.37207766
      0.21000000	   -148.47258014	     -3.34572063	     -2.15783575	      0.05256519	      1.50497333	     -0.00677856	    -16.91830930	      4.44697319	      0.89175272	     69.49977631	     -0.48404186	     -2.79309568	     -2.74071120	      4.41549875	     -0.89821977	     20.00538176	     97.36662872
      0.22000000	   -148.45209617	     -3.36485783	     -2.14633381	      0.05269399	      1.50495118	     -0.00676628	    -16.91784787	      4.44086724	      0.89620857	     69.49854586	     -0.48242056	     -2.78398129	     -2.74559125	      4.41855417	     -0.90313669	     20.00825865	     97.36226034
      0.23000000	   -148.42285979	     -3.38262823	     -2.13249839	      0.05283535	      1.50493846	     -0.00676381	    -16.92232126	      4.43024528	      0.89935127	     69.49438483	     -0.48168723	     -2.77950974	     -2.75463292	      4.42145040	     -0.91184655	     20.01419380	     97.35250217
      0.24000000	   -148.39160453	     -3.39928851	     -2.11853003	      0.05298211	      1.50493085	     -0.00676172	    -16.92776002	      4.41735709	      0.90188384	     69.49122551	     -0.48079409	     -2.77985203	     -2.76352808	      4.42520546	     -0.92008651	     20.02511300	     97.33615625
      0.25000000	   -148.36765310	     -3.41762595	     -2.10672124	      0.05311944	      1.50492195	     -0.00674850	    -16.92861489	      4.40722195	      0.90562099	     69.48821349	     -0.47895671	     -2.77734126	     -2.77003935	      4.42858733	     -0.92630163	     20.03446491	     97.31922338
      0.26000000	   -148.33903605	     -3.43507933	     -2.09276453	      0.05326999	      1.50491613	     -0.00674334	    -16.93110435	      4.39384304	      0.90840357	     69.48426171	     -0.47760827	     -2.77890009	     -2.77816510	      4.43197853	     -0.93383540	     20.04702105	     97.29218442
      0.27000000	   -148.31707085	     -3.44588372	     -2.08324403	      0.05340904	      1.50492269	     -0.00673840	    -16.91129773	      4.38525049	      0.89748463	     69.55377055	     -0.48700494	     -2.79236084	     -2.76718473	      4.45769767	     -0.91439232	     20.04489351	     96.90641395
      0.28000000	   -148.30052527	     -3.45777598	     -2.07881857	      0.05353527	      1.50492117	     -0.00673057	    -16.90217565	      4.38509282	      0.90067104	     69.55261218	     -0.48474545	     -2.78822333	     -2.76722896	      4.45908315	     -0.91455917	     20.04442342	     96.90553885
      0.29000000	   -148.26731612	     -3.47185164	     -2.06310596	      0.05369354	      1.50491607	     -0.00673003	    -16.90855765	      4.37084673	      0.90139660	     69.54298356	     -0.48560767	     -2.78969744	     -2.78100060	      4.46003784	     -0.92763030	     20.05927188	     96.88648454
      0.30000000	   -148.25335185	     -3.48107378	     -2.05905200	      0.05382231	      1.50491173	     -0.00672362	    -16.89833199	      4.37246390	      0.90354231	     69.54400745	     -0.48379213	     -2.78722243	     -2.77872543	      4.46109513	     -0.92540418	     20.06154347	     96.88510143
      0.31000000	   -148.23815419	     -3.48960381	     -2.05325631	      0.05395454	      1.50490415	     -0.00671972	    -16.88913941	      4.37384177	      0.90498487	     69.54451163	     -0.48282202	     -2.78429806	     -2.77708387	      4.46134620	     -0.92382435	     20.06508084	     96.88294052
      0.32000000	   -148.22162143	     -3.49540493	     -2.04670754	      0.05408764	      1.50489543	     -0.00672081	    -16.88051399	      4.37577984	      0.90519466	     69.54499372	     -0.48294797	     -2.78171793	     -2.77555470	      4.46059353	     -0.92230862	     20.06881773	     96.88044168
      0.33000000	   -148.20394405	     -3.49803701	     -2.03959614	      0.05422163	      1.50488725	     -0.00672817	    -16.87171067	      4.37880334	      0.90400961	     69.54563720	     -0.48423450	     -2.77961454	     -2.77383047	      4.45872429	     -0.92053263	     20.07210949	     96.87796866
      0.34000000	   -148.18479683	     -3.49637943	     -2.03180684	      0.05435406	      1.50487657	     -0.00674479	    -16.86264462	      4.38337421	      0.90124757	     69.54678802	     -0.48688835	     -2.77761286	     -2.77165191	      4.45558376	     -0.91824472	     20.07440704	     96.87577639
